PathFileType	4	(X/Y/Z)	s01c0201.trc
DataRate	CameraRate	NumFrames	NumMarkers	Units	OrigDataRate	OrigDataStartFrame	OrigNumFrames
200	200	4	48	mm	200	1500	2000
Frame#	Time	racr			lacr			c7			jug			rlel			rdr			llel			ldr			s2			lic			ric			lasi			rasi			rpsi			lpsi			rgt			lgt			rth1			rth2			rth3			rth4			rlfc			rsh1			rsh2			rsh3			rsh4			rlmal			rmmal			rcal			rtoe			rmt5			lth1			lth2			lth4			lth3			llfc			lsh1			lsh2			lsh3			lsh4			llmal			lmmal			lcal			ltoe			lmt5			SBIKE			LBIKE			RBIKE			
		X1	Y1	Z1	X2	Y2	Z2	X3	Y3	Z3	X4	Y4	Z4	X5	Y5	Z5	X6	Y6	Z6	X7	Y7	Z7	X8	Y8	Z8	X9	Y9	Z9	X10	Y10	Z10	X11	Y11	Z11	X12	Y12	Z12	X13	Y13	Z13	X14	Y14	Z14	X15	Y15	Z15	X16	Y16	Z16	X17	Y17	Z17	X18	Y18	Z18	X19	Y19	Z19	X20	Y20	Z20	X21	Y21	Z21	X22	Y22	Z22	X23	Y23	Z23	X24	Y24	Z24	X25	Y25	Z25	X26	Y26	Z26	X27	Y27	Z27	X28	Y28	Z28	X29	Y29	Z29	X30	Y30	Z30	X31	Y31	Z31	X32	Y32	Z32	X33	Y33	Z33	X34	Y34	Z34	X35	Y35	Z35	X36	Y36	Z36	X37	Y37	Z37	X38	Y38	Z38	X39	Y39	Z39	X40	Y40	Z40	X41	Y41	Z41	X42	Y42	Z42	X43	Y43	Z43	X44	Y44	Z44	X45	Y45	Z45	X46	Y46	Z46	X47	Y47	Z47	X48	Y48	Z48	
1500	7.5000	534.922956	1239.612670	-120.862869	516.980265	1224.120059	-485.614145	507.386911	1351.949566	-299.961939	493.980330	1183.649396	-295.058713	480.334179	995.710854	33.930734	654.248536	871.368811	-75.136656	442.871792	954.071718	-577.821991	645.067538	873.869994	-466.471068	-20.338477	1150.894288	-245.784500	119.074743	1160.419412	-438.146476	155.446368	1157.904573	-108.775658	127.867449	1106.792458	-416.296988	180.853582	1119.649082	-139.774755	14.520908	1193.015478	-198.082593	-0.889767	1194.715622	-301.160506	119.718767	1061.979689	-68.461023	64.023836	1013.672559	-445.798798	241.541884	1013.856630	-68.227971	320.444421	992.108624	-82.370032	403.542575	961.929859	-102.015234	333.133655	1041.082302	-106.900705	473.856494	886.557781	-135.487123	392.419227	810.239970	-95.974366	335.247973	747.471117	-95.940096	269.466909	687.900998	-99.629740	367.124111	714.479819	-135.489318	171.948725	618.389167	-106.527744	206.211291	594.140649	-185.792704	127.923910	634.491666	-161.698793	245.121701	389.523534	-143.810268	171.123558	467.814997	-75.402543	118.086083	894.671823	-446.696741	181.005629	831.465030	-447.795947	220.659385	868.854640	-449.682383	235.558924	767.308595	-430.086015	296.197860	667.229526	-414.381801	249.192613	566.428292	-448.552233	237.339964	480.546250	-442.198194	223.022213	396.773477	-428.410692	292.924858	475.346722	-415.971762	281.151015	243.833473	-350.937538	236.253310	295.226322	-335.161883	156.721386	237.997780	-370.392454	430.446936	200.441564	-383.857836	323.322395	180.577755	-447.321122	-228.223736	891.200107	-252.767149	-21.388832	80.287854	-454.192554	-21.361810	80.368721	-54.059681	
1501	7.5050	534.108288	1240.761879	-119.224197	517.824791	1224.663806	-484.550813	507.276644	1352.526973	-298.781456	494.279955	1184.467023	-293.786074	480.568464	996.676048	35.556620	654.244357	871.745014	-74.609387	443.430249	954.832618	-577.523358	645.291412	873.808033	-466.224373	-20.188308	1150.602949	-245.994147	118.848274	1159.445858	-437.602054	155.475777	1158.320414	-108.526811	127.881739	1106.398278	-416.379067	181.066548	1120.377892	-140.197936	14.596636	1192.736657	-198.338438	-0.814763	1194.582060	-301.323093	119.800570	1062.394584	-68.329443	63.025120	1013.513198	-445.858937	241.710856	1015.835572	-67.645255	320.912137	996.057871	-82.152623	404.532736	967.982271	-101.829509	332.144146	1045.726265	-105.703767	476.883310	895.406156	-135.917275	396.071766	819.063823	-96.550357	339.300365	756.524720	-96.615038	273.527910	696.715773	-100.424996	371.918443	723.972293	-134.727713	175.915936	625.851311	-107.976169	210.250127	602.411762	-187.407481	130.953898	639.904079	-162.851037	256.245253	399.297279	-142.955977	178.825338	474.842203	-76.050548	114.793159	893.911766	-447.478938	176.155382	829.290204	-449.606770	216.588820	865.820984	-450.542509	229.458946	763.827057	-431.690385	287.536340	662.280121	-415.895931	240.020686	561.923516	-449.886942	228.083377	476.092707	-442.860330	213.688200	392.351528	-428.773730	284.008361	470.785921	-417.356019	268.583243	242.196401	-354.189713	228.585601	290.555804	-335.585691	148.431479	233.659831	-370.316777	421.725026	193.969292	-383.837463	314.385420	174.680474	-447.247779	-228.279080	891.188324	-252.787523	-21.406888	80.282915	-454.206273	-21.373022	80.399402	-54.061029	
1502	7.5100	533.295092	1241.840912	-117.423133	518.696816	1225.290247	-483.334308	507.230562	1353.068810	-297.458826	494.697641	1185.193320	-292.529116	480.838999	997.598265	36.994114	654.250106	872.119058	-74.098144	443.979298	955.598517	-577.111513	645.428360	873.848477	-465.918715	-20.127673	1150.461258	-246.204856	119.000932	1158.515189	-437.227458	155.422967	1158.912386	-108.279912	127.891874	1106.164739	-416.488197	181.072353	1121.079868	-140.243623	14.614220	1192.570783	-198.590859	-0.753009	1194.600877	-301.508684	119.812764	1062.885184	-68.182174	62.013976	1013.524760	-446.063635	241.559926	1017.835288	-67.241033	321.001670	999.816374	-81.969669	404.925378	973.870559	-101.396046	331.191174	1049.953104	-105.017062	479.702990	904.146322	-136.139149	399.436976	828.073446	-97.436817	342.859365	765.374025	-97.311656	277.263160	705.201788	-101.189471	375.756735	732.010975	-135.338796	179.892827	632.358488	-109.492707	214.680783	609.525901	-188.097048	134.260748	644.513044	-164.088291	266.950981	407.692618	-143.490291	186.846143	481.172528	-76.710042	111.549657	893.429949	-448.323564	171.422145	827.598363	-450.753074	212.787984	863.225663	-451.900572	223.502746	761.023245	-432.558870	279.147686	658.025564	-417.507956	231.107434	557.992299	-450.992447	218.903419	472.117680	-443.626134	204.271165	388.581395	-429.134481	275.118613	466.687183	-418.867958	255.652476	241.209862	-357.620652	220.754870	286.385018	-336.002054	139.934343	230.258000	-370.247167	412.800198	187.965285	-383.778170	305.312731	169.418427	-447.076140	-228.345776	891.192714	-252.855035	-21.421676	80.279400	-454.216073	-21.383762	80.392193	-54.058435	
1503	7.5150	532.525801	1242.763959	-115.620010	519.642063	1225.974208	-482.021318	507.290929	1353.625628	-296.113142	494.960069	1185.809937	-291.091278	481.106407	998.420464	38.333152	654.305141	872.517827	-73.639788	444.535981	956.605209	-576.671799	645.570045	873.917872	-465.617509	-20.122636	1150.533670	-246.389823	119.813970	1157.807429	-437.106448	155.273923	1159.621640	-107.982353	127.887334	1106.095583	-416.629202	180.967692	1121.815680	-140.286889	14.581506	1192.545661	-198.856111	-0.706542	1194.779661	-301.715018	119.748508	1063.412937	-68.056854	60.845606	1013.665485	-446.079483	241.120840	1019.942887	-67.074243	320.870653	1003.461400	-81.747972	404.956876	979.097817	-101.346576	330.185474	1054.016488	-104.571764	482.337368	912.359857	-136.423432	402.388414	836.680075	-97.992699	346.100350	773.788656	-97.892254	280.805510	713.183832	-101.934241	379.582677	739.967758	-135.278997	184.159634	637.818616	-111.256131	220.051579	615.967627	-189.207416	138.063639	648.359125	-165.560626	277.683590	415.515857	-143.658094	195.391040	487.178372	-76.969636	108.357695	893.238584	-449.183062	166.856427	826.002495	-451.816067	209.289533	860.973505	-453.255943	217.668851	758.699795	-433.787376	271.249786	654.433557	-419.058234	222.562466	554.508796	-452.169475	209.834118	468.863617	-444.323203	195.029493	385.268163	-429.285179	266.399609	463.183089	-420.466002	242.444651	240.860020	-361.192792	212.793463	282.729034	-336.404901	131.310814	227.590426	-370.125104	403.646810	182.432763	-383.695061	295.949028	164.849948	-447.018950	-228.387894	891.202479	-252.888574	-21.433995	80.274326	-454.194377	-21.398236	80.414571	-54.058313	
